<?xml version="1.0" encoding="utf-8"?>
<!-- Generator: Adobe Illustrator 21.0.2, SVG Export Plug-In . SVG Version: 6.00 Build 0)  -->
<svg version="1.1" id="Calque_1" xmlns="http://www.w3.org/2000/svg" xmlns:xlink="http://www.w3.org/1999/xlink" x="0px" y="0px"
	 viewBox="0 0 16 16" style="enable-background:new 0 0 16 16;" xml:space="preserve">
<style type="text/css">
	.st0{fill:#2C9EE6;}
</style>
<path class="st0" d="M8,16c-2.1,0-4.1-0.8-5.7-2.3S0,10.1,0,8c0-1.5,0.4-3,1.2-4.3C2,2.5,3.1,1.5,4.4,0.8l0.7,1.3
	C4,2.7,3.1,3.5,2.5,4.5c-0.7,1-1,2.2-1,3.5c0,3.6,2.9,6.5,6.5,6.5s6.5-2.9,6.5-6.5c0-1.2-0.3-2.4-1-3.5c-0.6-1-1.5-1.8-2.6-2.4
	l0.7-1.3c1.3,0.7,2.4,1.7,3.2,2.9C15.6,5,16,6.5,16,8c0,2.1-0.8,4.1-2.3,5.7S10.1,16,8,16z"/>
</svg>
